<svg id="Group_1" data-name="Group 1" xmlns="http://www.w3.org/2000/svg" width="345.09" height="310.96" viewBox="0 0 345.09 310.96">
  <path id="Path_1" data-name="Path 1" d="M439,160.4V312.73a19.84,19.84,0,0,1-19.84,19.84H266.85A19.83,19.83,0,0,1,247,312.73V160.4a19.83,19.83,0,0,1,19.83-19.83H419.18A19.83,19.83,0,0,1,439,160.4ZM419.18,330.57A17.84,17.84,0,0,0,437,312.73V238.29a95.72,95.72,0,0,0-95.73-95.72H266.85A17.83,17.83,0,0,0,249,160.4V312.73a17.83,17.83,0,0,0,17.83,17.84Z" transform="translate(-165 -86)" fill="#e6e6e6"/>
  <path id="Path_2" data-name="Path 2" d="M437.84,233.5a93.8,93.8,0,0,0-187.6,0c0,51.81,56.8,117.6,93.8,85.8S437.84,285.31,437.84,233.5Z" transform="translate(-165 -86)" fill="#f2f2f2"/>
  <path id="Path_3" data-name="Path 3" d="M350,130.57v106a17,17,0,0,1-17,17H227a17,17,0,0,1-17-17v-106a17,17,0,0,1,17-17H333A17,17,0,0,1,350,130.57Zm-17,121a15,15,0,0,0,15-15V183.13a67.56,67.56,0,0,0-67.56-67.56H227a15,15,0,0,0-15,15v106a15,15,0,0,0,15,15Z" transform="translate(-165 -86)" fill="#ccc"/>
  <path id="Path_4" data-name="Path 4" d="M348.14,183.57a68.128,68.128,0,1,0-136.255,0c.005,37.62,50.655,91.44,68.135,58.12C300.02,203.57,348.14,221.19,348.14,183.57Z" transform="translate(-165 -86)" fill="#e6e6e6"/>
  <path id="Path_5" data-name="Path 5" d="M276,114.57v54a17,17,0,0,1-17,17H205a17,17,0,0,1-17-17v-54a17,17,0,0,1,17-17h54A17,17,0,0,1,276,114.57Zm-17,69a15,15,0,0,0,15-15V143.42a43.85,43.85,0,0,0-43.85-43.85H205a15,15,0,0,0-15,15v54a15,15,0,0,0,15,15Z" transform="translate(-165 -86)" fill="#3f3d56"/>
  <path id="Path_6" data-name="Path 6" d="M274.47,141.57a42.458,42.458,0,1,0-84.915,0c.005,23.44,32.715,55.78,42.465,34.45C245,147.57,274.47,165,274.47,141.57Z" transform="translate(-165 -86)" fill="#f49727"/>
  <path id="Path_7" data-name="Path 7" d="M0,8.52H1.77V2.43H6.2V0H0Z" fill="#ccc"/>
  <rect id="Rectangle_1" data-name="Rectangle 1" width="11" height="2.43" transform="translate(193.19)" fill="#ccc"/>
  <rect id="Rectangle_2" data-name="Rectangle 2" width="11" height="2.43" transform="translate(149.19)" fill="#ccc"/>
  <rect id="Rectangle_3" data-name="Rectangle 3" width="11" height="2.43" transform="translate(171.19)" fill="#ccc"/>
  <rect id="Rectangle_4" data-name="Rectangle 4" width="11" height="2.43" transform="translate(237.18)" fill="#ccc"/>
  <rect id="Rectangle_5" data-name="Rectangle 5" width="11" height="2.43" transform="translate(259.18)" fill="#ccc"/>
  <rect id="Rectangle_6" data-name="Rectangle 6" width="11" height="2.43" transform="translate(215.18)" fill="#ccc"/>
  <rect id="Rectangle_7" data-name="Rectangle 7" width="11" height="2.43" transform="translate(39.2)" fill="#ccc"/>
  <rect id="Rectangle_8" data-name="Rectangle 8" width="11" height="2.43" transform="translate(17.2)" fill="#ccc"/>
  <rect id="Rectangle_9" data-name="Rectangle 9" width="11" height="2.43" transform="translate(61.2)" fill="#ccc"/>
  <rect id="Rectangle_10" data-name="Rectangle 10" width="11" height="2.43" transform="translate(105.19)" fill="#ccc"/>
  <rect id="Rectangle_11" data-name="Rectangle 11" width="11" height="2.43" transform="translate(83.2)" fill="#ccc"/>
  <rect id="Rectangle_12" data-name="Rectangle 12" width="11" height="2.43" transform="translate(127.19)" fill="#ccc"/>
  <rect id="Rectangle_13" data-name="Rectangle 13" width="11" height="2.43" transform="translate(281.18)" fill="#ccc"/>
  <path id="Path_8" data-name="Path 8" d="M303.18,0V2.43h4.43V8.52h1.77V0Z" fill="#ccc"/>
  <rect id="Rectangle_14" data-name="Rectangle 14" width="1.77" height="15.15" transform="translate(307.61 205.42)" fill="#ccc"/>
  <rect id="Rectangle_15" data-name="Rectangle 15" width="1.77" height="15.15" transform="translate(307.61 175.13)" fill="#ccc"/>
  <rect id="Rectangle_16" data-name="Rectangle 16" width="1.77" height="15.15" transform="translate(307.61 114.54)" fill="#ccc"/>
  <rect id="Rectangle_17" data-name="Rectangle 17" width="1.77" height="10.34" transform="translate(307.61 58.76)" fill="#ccc"/>
  <rect id="Rectangle_18" data-name="Rectangle 18" width="1.77" height="15.15" transform="translate(307.61 84.25)" fill="#ccc"/>
  <rect id="Rectangle_19" data-name="Rectangle 19" width="1.77" height="15.15" transform="translate(307.61 144.84)" fill="#ccc"/>
  <rect id="Rectangle_20" data-name="Rectangle 20" width="1.77" height="15.15" transform="translate(307.61 235.72)" fill="#ccc"/>
  <rect id="Rectangle_21" data-name="Rectangle 21" width="1.77" height="15.15" transform="translate(307.61 23.66)" fill="#ccc"/>
  <path id="Path_9" data-name="Path 9" d="M307.61,272.09h-4.43v2.44h6.2v-8.52h-1.77Z" fill="#ccc"/>
  <rect id="Rectangle_22" data-name="Rectangle 22" width="11" height="2.43" transform="translate(259.18 272.09)" fill="#ccc"/>
  <rect id="Rectangle_23" data-name="Rectangle 23" width="11" height="2.43" transform="translate(83.2 272.09)" fill="#ccc"/>
  <rect id="Rectangle_24" data-name="Rectangle 24" width="11" height="2.43" transform="translate(39.2 272.09)" fill="#ccc"/>
  <rect id="Rectangle_25" data-name="Rectangle 25" width="11" height="2.43" transform="translate(61.2 272.09)" fill="#ccc"/>
  <rect id="Rectangle_26" data-name="Rectangle 26" width="11" height="2.43" transform="translate(17.2 272.09)" fill="#ccc"/>
  <rect id="Rectangle_27" data-name="Rectangle 27" width="11" height="2.43" transform="translate(193.19 272.09)" fill="#ccc"/>
  <rect id="Rectangle_28" data-name="Rectangle 28" width="11" height="2.43" transform="translate(237.18 272.09)" fill="#ccc"/>
  <rect id="Rectangle_29" data-name="Rectangle 29" width="11" height="2.43" transform="translate(215.18 272.09)" fill="#ccc"/>
  <rect id="Rectangle_30" data-name="Rectangle 30" width="11" height="2.43" transform="translate(281.18 272.09)" fill="#ccc"/>
  <rect id="Rectangle_31" data-name="Rectangle 31" width="11" height="2.43" transform="translate(149.19 272.09)" fill="#ccc"/>
  <rect id="Rectangle_32" data-name="Rectangle 32" width="11" height="2.43" transform="translate(127.19 272.09)" fill="#ccc"/>
  <rect id="Rectangle_33" data-name="Rectangle 33" width="11" height="2.43" transform="translate(105.19 272.09)" fill="#ccc"/>
  <rect id="Rectangle_34" data-name="Rectangle 34" width="11" height="2.43" transform="translate(171.19 272.09)" fill="#ccc"/>
  <path id="Path_10" data-name="Path 10" d="M1.77,266.01H0v8.52H6.2v-2.44H1.77Z" fill="#ccc"/>
  <rect id="Rectangle_35" data-name="Rectangle 35" width="1.77" height="15.15" transform="translate(0 84.25)" fill="#ccc"/>
  <rect id="Rectangle_36" data-name="Rectangle 36" width="1.77" height="15.15" transform="translate(0 114.54)" fill="#ccc"/>
  <rect id="Rectangle_37" data-name="Rectangle 37" width="1.77" height="15.15" transform="translate(0 23.66)" fill="#ccc"/>
  <rect id="Rectangle_38" data-name="Rectangle 38" width="1.77" height="15.15" transform="translate(0 53.96)" fill="#ccc"/>
  <rect id="Rectangle_39" data-name="Rectangle 39" width="1.77" height="15.15" transform="translate(0 235.72)" fill="#ccc"/>
  <rect id="Rectangle_40" data-name="Rectangle 40" width="1.77" height="15.15" transform="translate(0 205.42)" fill="#ccc"/>
  <rect id="Rectangle_41" data-name="Rectangle 41" width="1.77" height="15.15" transform="translate(0 175.13)" fill="#ccc"/>
  <rect id="Rectangle_42" data-name="Rectangle 42" width="1.77" height="15.15" transform="translate(0 144.84)" fill="#ccc"/>
  <path id="Path_11" data-name="Path 11" d="M344.05,301.22l-1.46.18.73,6.52L272.07,243.5l6.17-.28-.07-1.56-8.83.4,1.05,9.33,1.46-.18-.73-6.52,71.25,64.42-6.17.28.06,1.57,8.83-.41Z" fill="#3f3d56"/>
  <ellipse id="Ellipse_1" data-name="Ellipse 1" cx="7.09" cy="7.19" rx="7.09" ry="7.19" transform="translate(298.38 268)" fill="#3f3d56"/>
</svg>
